<svg xmlns="http://www.w3.org/2000/svg" width="351" height="352" viewBox="0 0 351 352"><title>Untitled</title><g fill="none" fill-rule="evenodd"><path fill="#1e3050" d="M146 315c-41.828 0-83.156-.014-124.484.016-5.473.005-10.566-.895-14.856-4.651-5.092-4.46-6.376-10.247-6.143-16.658 1.1-30.23 12.215-56.1 33.973-77.173 21.927-21.236 48.403-31.516 78.823-31.48 16.31.019 32.625.4 48.923 1.012 4.929.186 9.79 1.808 14.717 2.55 2.84.427 3.745 1.807 3.97 4.616 2.215 27.711 14.122 50.443 35.495 68.201 2.844 2.364 4.252 4.947 4.173 8.935-.289 14.654-.115 29.317-.115 44.632z"/><path fill="#1f3150" d="M334.937 141.102c28.03 34.936 17.613 91.508-33.106 110.874l11.439 14.31c5.208 6.513 5.062 10.556-.796 16.512-3.852 3.916-7.848 7.69-12.322 12.057 4.177 4.177 8.15 8.095 12.061 12.075 5.204 5.297 5.48 10.39.372 15.679-8.219 8.51-16.603 16.864-25.086 25.11-4.32 4.2-8.747 4.564-13.318.463-7.297-6.546-14.32-13.445-20.929-20.68-1.861-2.037-2.588-5.76-2.616-8.72-.21-22.164-.17-44.33-.048-66.496.016-3.022-.789-4.692-3.602-6.172-38.52-20.255-48.56-72.816-20.319-105.824 25.101-29.34 66.125-33.76 97-10.258 4.067 3.096 7.398 7.157 11.27 11.07m-35.06 38.741c.149-1.323.39-2.644.432-3.97.298-9.474-5.088-17.109-14.038-19.967-8.187-2.615-17.845.793-22.376 7.776-4.755 7.327-4.6 14.951-.375 22.128 4.167 7.077 11.12 9.984 19.213 8.983 8.485-1.049 14.19-5.917 17.144-14.95"/><path fill="#1e3050" d="M172.053 137.097c-34.511 23.125-80.843 13.937-103.859-20.343C45.264 82.6 54.241 36.334 88.338 12.925c33.828-23.223 81.77-13.91 104.263 20.252 22.893 34.77 13.917 80.76-20.548 103.92"/><path fill="#fbfbfc" d="M299.732 180.242c-2.81 8.634-8.514 13.502-16.999 14.551-8.092 1.001-15.046-1.906-19.213-8.983-4.225-7.177-4.38-14.8.375-22.128 4.53-6.983 14.19-10.39 22.376-7.776 8.95 2.858 14.336 10.493 14.038 19.966-.042 1.327-.283 2.648-.577 4.37"/></g></svg>